<svg width="436" height="35" viewBox="0 0 436 35" fill="none" xmlns="http://www.w3.org/2000/svg">
<path d="M0.981534 27V0.818181H7.30966V21.8608H18.2017V27H0.981534ZM34.1467 18.5241V7.36364H40.3853V27H34.4279V23.3438H34.2234C33.7887 24.5455 33.0472 25.5 31.9989 26.2074C30.9592 26.9062 29.7021 27.2557 28.2276 27.2557C26.8896 27.2557 25.7134 26.9489 24.6992 26.3352C23.685 25.7216 22.8967 24.8651 22.3342 23.7656C21.7717 22.6577 21.4862 21.3622 21.4776 19.8793V7.36364H27.729V18.652C27.7376 19.7173 28.0188 20.5568 28.5728 21.1705C29.1268 21.7841 29.881 22.0909 30.8356 22.0909C31.4577 22.0909 32.016 21.9545 32.5103 21.6818C33.0131 21.4006 33.4094 20.9957 33.6992 20.4673C33.9975 19.9304 34.1467 19.2827 34.1467 18.5241ZM53.5305 27.3707C51.4595 27.3707 49.6825 26.9446 48.1996 26.0923C46.7251 25.2401 45.5916 24.0554 44.799 22.5384C44.0064 21.0128 43.6101 19.2486 43.6101 17.2457C43.6101 15.2344 44.0064 13.4702 44.799 11.9531C45.6001 10.4276 46.7379 9.23864 48.2124 8.38636C49.6953 7.53409 51.4638 7.10795 53.5178 7.10795C55.3331 7.10795 56.9141 7.43608 58.2607 8.09233C59.6158 8.74858 60.6726 9.67756 61.4311 10.8793C62.1982 12.0724 62.603 13.4744 62.6456 15.0852H56.8033C56.6839 14.0795 56.343 13.2912 55.7805 12.7202C55.2266 12.1491 54.5021 11.8636 53.6072 11.8636C52.8828 11.8636 52.2479 12.0682 51.7024 12.4773C51.157 12.8778 50.7308 13.4744 50.424 14.267C50.1257 15.0511 49.9766 16.0227 49.9766 17.1818C49.9766 18.3409 50.1257 19.321 50.424 20.1222C50.7308 20.9148 51.157 21.5156 51.7024 21.9247C52.2479 22.3253 52.8828 22.5256 53.6072 22.5256C54.1868 22.5256 54.6982 22.402 55.1413 22.1548C55.593 21.9077 55.9638 21.5455 56.2536 21.0682C56.5433 20.5824 56.7266 19.9943 56.8033 19.304H62.6456C62.5859 20.9233 62.1811 22.3381 61.4311 23.5483C60.6896 24.7585 59.6456 25.7003 58.299 26.3736C56.9609 27.0384 55.3714 27.3707 53.5305 27.3707ZM71.3803 27.3324C70.1275 27.3324 69.0153 27.1236 68.0437 26.706C67.0806 26.2798 66.3178 25.6406 65.7553 24.7884C65.2013 23.9276 64.9244 22.8494 64.9244 21.554C64.9244 20.4631 65.1161 19.5426 65.4996 18.7926C65.8832 18.0426 66.4116 17.4332 67.0849 16.9645C67.7582 16.4957 68.5337 16.142 69.4116 15.9034C70.2894 15.6562 71.2269 15.4901 72.2241 15.4048C73.3406 15.3026 74.2397 15.196 74.9215 15.0852C75.6033 14.9659 76.0977 14.7997 76.4045 14.5866C76.7198 14.3651 76.8775 14.054 76.8775 13.6534V13.5895C76.8775 12.9332 76.6516 12.4261 76.1999 12.0682C75.7482 11.7102 75.1388 11.5312 74.3718 11.5312C73.5451 11.5312 72.8803 11.7102 72.3775 12.0682C71.8746 12.4261 71.555 12.9205 71.4187 13.5511L65.6531 13.3466C65.8235 12.1534 66.2624 11.0881 66.9698 10.1506C67.6857 9.20455 68.6658 8.46307 69.9102 7.92614C71.163 7.38068 72.6673 7.10795 74.4229 7.10795C75.6758 7.10795 76.8306 7.2571 77.8874 7.5554C78.9442 7.84517 79.8647 8.27131 80.6488 8.83381C81.4329 9.38778 82.038 10.0696 82.4641 10.8793C82.8988 11.6889 83.1161 12.6136 83.1161 13.6534V27H77.2354V24.2642H77.082C76.7326 24.929 76.2852 25.4915 75.7397 25.9517C75.2028 26.4119 74.5678 26.7571 73.8349 26.9872C73.1104 27.2173 72.2923 27.3324 71.3803 27.3324ZM73.3107 23.2415C73.984 23.2415 74.5891 23.1051 75.1261 22.8324C75.6715 22.5597 76.1062 22.1847 76.43 21.7074C76.7539 21.2216 76.9158 20.6591 76.9158 20.0199V18.1534C76.7369 18.2472 76.5195 18.3324 76.2639 18.4091C76.0167 18.4858 75.744 18.5582 75.4457 18.6264C75.1474 18.6946 74.8406 18.7543 74.5252 18.8054C74.2099 18.8565 73.9073 18.9034 73.6175 18.946C73.0295 19.0398 72.5266 19.1847 72.109 19.3807C71.6999 19.5767 71.3846 19.8324 71.163 20.1477C70.9499 20.4545 70.8434 20.821 70.8434 21.2472C70.8434 21.8949 71.0735 22.3892 71.5337 22.7301C72.0025 23.071 72.5948 23.2415 73.3107 23.2415ZM104.082 13.3594L98.342 13.5128C98.2823 13.1037 98.1204 12.7415 97.8562 12.4261C97.592 12.1023 97.2468 11.8509 96.8207 11.6719C96.4031 11.4844 95.9173 11.3906 95.3633 11.3906C94.6388 11.3906 94.021 11.5355 93.5096 11.8253C93.0067 12.1151 92.7596 12.5071 92.7681 13.0014C92.7596 13.3849 92.913 13.7173 93.2283 13.9986C93.5522 14.2798 94.1275 14.5057 94.9542 14.6761L98.7383 15.392C100.699 15.767 102.156 16.3892 103.11 17.2585C104.074 18.1278 104.559 19.2784 104.568 20.7102C104.559 22.0568 104.159 23.2287 103.366 24.2259C102.582 25.223 101.508 25.9986 100.145 26.5526C98.7809 27.098 97.2212 27.3707 95.4656 27.3707C92.6616 27.3707 90.4499 26.7955 88.8306 25.6449C87.2198 24.4858 86.2994 22.9347 86.0692 20.9915L92.244 20.8381C92.3803 21.554 92.734 22.0994 93.305 22.4744C93.8761 22.8494 94.6048 23.0369 95.4911 23.0369C96.2923 23.0369 96.9442 22.8878 97.4471 22.5895C97.9499 22.2912 98.2056 21.8949 98.2141 21.4006C98.2056 20.9574 98.0096 20.6037 97.6261 20.3395C97.2425 20.0668 96.6417 19.8537 95.8235 19.7003L92.3974 19.0483C90.4286 18.6903 88.9627 18.0298 87.9996 17.0668C87.0366 16.0952 86.5593 14.8594 86.5678 13.3594C86.5593 12.0469 86.9087 10.9261 87.6161 9.99716C88.3235 9.05966 89.3292 8.34375 90.6332 7.84943C91.9371 7.35511 93.4755 7.10795 95.2482 7.10795C97.9073 7.10795 100.004 7.66619 101.538 8.78267C103.072 9.89062 103.92 11.4162 104.082 13.3594ZM124.827 9.37074C124.683 8.83381 124.469 8.3608 124.188 7.9517C123.907 7.53409 123.562 7.1804 123.153 6.89062C122.744 6.60085 122.275 6.38352 121.746 6.23864C121.218 6.08523 120.638 6.00852 120.008 6.00852C118.738 6.00852 117.638 6.31534 116.71 6.92898C115.789 7.54261 115.077 8.4375 114.575 9.61364C114.072 10.7812 113.82 12.2003 113.82 13.8707C113.82 15.5497 114.063 16.9815 114.549 18.1662C115.035 19.3509 115.738 20.2543 116.658 20.8764C117.579 21.4986 118.695 21.8097 120.008 21.8097C121.167 21.8097 122.147 21.6222 122.948 21.2472C123.758 20.8636 124.371 20.3224 124.789 19.6236C125.207 18.9247 125.415 18.1023 125.415 17.1562L126.592 17.2969H120.225V12.6818H131.513V16.1463C131.513 18.4901 131.015 20.4972 130.018 22.1676C129.029 23.8381 127.665 25.1207 125.927 26.0156C124.197 26.9105 122.207 27.358 119.957 27.358C117.46 27.358 115.265 26.8168 113.373 25.7344C111.481 24.652 110.006 23.1094 108.95 21.1065C107.893 19.0952 107.364 16.7088 107.364 13.9474C107.364 11.7997 107.684 9.89489 108.323 8.23295C108.962 6.5625 109.853 5.14773 110.995 3.98864C112.146 2.82955 113.475 1.9517 114.984 1.35511C116.501 0.758522 118.133 0.460226 119.88 0.460226C121.397 0.460226 122.808 0.677556 124.112 1.11222C125.424 1.54688 126.583 2.16051 127.589 2.95312C128.603 3.74574 129.425 4.6875 130.056 5.77841C130.687 6.86932 131.079 8.06676 131.232 9.37074H124.827ZM144.409 27.3707C142.347 27.3707 140.574 26.9489 139.091 26.1051C137.617 25.2528 136.479 24.0682 135.678 22.5511C134.885 21.0256 134.489 19.2571 134.489 17.2457C134.489 15.2259 134.885 13.4574 135.678 11.9403C136.479 10.4148 137.617 9.23011 139.091 8.38636C140.574 7.53409 142.347 7.10795 144.409 7.10795C146.472 7.10795 148.24 7.53409 149.715 8.38636C151.198 9.23011 152.336 10.4148 153.128 11.9403C153.929 13.4574 154.33 15.2259 154.33 17.2457C154.33 19.2571 153.929 21.0256 153.128 22.5511C152.336 24.0682 151.198 25.2528 149.715 26.1051C148.24 26.9489 146.472 27.3707 144.409 27.3707ZM144.448 22.6534C145.198 22.6534 145.833 22.4233 146.353 21.9631C146.873 21.5028 147.269 20.8636 147.542 20.0455C147.823 19.2273 147.963 18.2812 147.963 17.2074C147.963 16.1165 147.823 15.1619 147.542 14.3438C147.269 13.5256 146.873 12.8864 146.353 12.4261C145.833 11.9659 145.198 11.7358 144.448 11.7358C143.672 11.7358 143.016 11.9659 142.479 12.4261C141.951 12.8864 141.546 13.5256 141.265 14.3438C140.992 15.1619 140.855 16.1165 140.855 17.2074C140.855 18.2812 140.992 19.2273 141.265 20.0455C141.546 20.8636 141.951 21.5028 142.479 21.9631C143.016 22.4233 143.672 22.6534 144.448 22.6534ZM163.784 15.8011V27H157.532V7.36364H163.477V10.9688H163.694C164.129 9.76705 164.87 8.82528 165.919 8.14347C166.967 7.45312 168.216 7.10795 169.664 7.10795C171.045 7.10795 172.243 7.41903 173.257 8.04119C174.279 8.65483 175.072 9.51562 175.635 10.6236C176.206 11.723 176.487 13.0099 176.478 14.4844V27H170.227V15.7116C170.235 14.6207 169.958 13.7685 169.396 13.1548C168.842 12.5412 168.071 12.2344 167.082 12.2344C166.426 12.2344 165.846 12.3793 165.343 12.669C164.849 12.9503 164.466 13.3551 164.193 13.8835C163.929 14.4119 163.792 15.0511 163.784 15.8011ZM180.4 27V23.4332L189.502 12.3494V12.2216H180.719V7.36364H196.955V11.2756L188.518 22.0142V22.142H197.262V27H180.4ZM206.837 27.3324C205.585 27.3324 204.472 27.1236 203.501 26.706C202.538 26.2798 201.775 25.6406 201.212 24.7884C200.658 23.9276 200.381 22.8494 200.381 21.554C200.381 20.4631 200.573 19.5426 200.957 18.7926C201.34 18.0426 201.869 17.4332 202.542 16.9645C203.215 16.4957 203.991 16.142 204.869 15.9034C205.746 15.6562 206.684 15.4901 207.681 15.4048C208.798 15.3026 209.697 15.196 210.379 15.0852C211.06 14.9659 211.555 14.7997 211.862 14.5866C212.177 14.3651 212.335 14.054 212.335 13.6534V13.5895C212.335 12.9332 212.109 12.4261 211.657 12.0682C211.205 11.7102 210.596 11.5312 209.829 11.5312C209.002 11.5312 208.337 11.7102 207.835 12.0682C207.332 12.4261 207.012 12.9205 206.876 13.5511L201.11 13.3466C201.281 12.1534 201.719 11.0881 202.427 10.1506C203.143 9.20455 204.123 8.46307 205.367 7.92614C206.62 7.38068 208.124 7.10795 209.88 7.10795C211.133 7.10795 212.288 7.2571 213.344 7.5554C214.401 7.84517 215.322 8.27131 216.106 8.83381C216.89 9.38778 217.495 10.0696 217.921 10.8793C218.356 11.6889 218.573 12.6136 218.573 13.6534V27H212.692V24.2642H212.539C212.19 24.929 211.742 25.4915 211.197 25.9517C210.66 26.4119 210.025 26.7571 209.292 26.9872C208.567 27.2173 207.749 27.3324 206.837 27.3324ZM208.768 23.2415C209.441 23.2415 210.046 23.1051 210.583 22.8324C211.129 22.5597 211.563 22.1847 211.887 21.7074C212.211 21.2216 212.373 20.6591 212.373 20.0199V18.1534C212.194 18.2472 211.977 18.3324 211.721 18.4091C211.474 18.4858 211.201 18.5582 210.903 18.6264C210.604 18.6946 210.298 18.7543 209.982 18.8054C209.667 18.8565 209.364 18.9034 209.075 18.946C208.487 19.0398 207.984 19.1847 207.566 19.3807C207.157 19.5767 206.842 19.8324 206.62 20.1477C206.407 20.4545 206.3 20.821 206.3 21.2472C206.3 21.8949 206.531 22.3892 206.991 22.7301C207.46 23.071 208.052 23.2415 208.768 23.2415ZM231.549 34.7727C229.683 34.7727 228.085 34.5128 226.755 33.9929C225.425 33.473 224.381 32.7614 223.623 31.858C222.864 30.9545 222.408 29.9318 222.255 28.7898L228.174 28.4574C228.285 28.858 228.489 29.2074 228.788 29.5057C229.094 29.804 229.491 30.0341 229.977 30.196C230.471 30.358 231.05 30.4389 231.715 30.4389C232.763 30.4389 233.629 30.1832 234.31 29.6719C235.001 29.169 235.346 28.2869 235.346 27.0256V23.5739H235.129C234.881 24.179 234.506 24.7202 234.004 25.1974C233.501 25.6747 232.874 26.0497 232.124 26.3224C231.383 26.5952 230.531 26.7315 229.567 26.7315C228.136 26.7315 226.823 26.3991 225.63 25.7344C224.445 25.0611 223.495 24.0213 222.779 22.6151C222.072 21.2003 221.718 19.3807 221.718 17.1562C221.718 14.8636 222.085 12.9759 222.817 11.4929C223.55 10.0014 224.509 8.89773 225.694 8.18182C226.887 7.46591 228.17 7.10795 229.542 7.10795C230.573 7.10795 231.455 7.28693 232.188 7.64489C232.93 7.99432 233.539 8.44602 234.016 9C234.494 9.55398 234.856 10.1293 235.103 10.7259H235.282V7.36364H241.508V27.0767C241.508 28.7386 241.09 30.1406 240.255 31.2827C239.42 32.4247 238.252 33.2898 236.752 33.8778C235.252 34.4744 233.518 34.7727 231.549 34.7727ZM231.741 22.1804C232.499 22.1804 233.147 21.9801 233.684 21.5795C234.221 21.179 234.634 20.6037 234.924 19.8537C235.214 19.1037 235.359 18.2045 235.359 17.1562C235.359 16.0909 235.214 15.1747 234.924 14.4077C234.643 13.6321 234.229 13.0355 233.684 12.6179C233.147 12.2003 232.499 11.9915 231.741 11.9915C230.965 11.9915 230.309 12.2045 229.772 12.6307C229.235 13.0568 228.826 13.6577 228.545 14.4332C228.272 15.2003 228.136 16.108 228.136 17.1562C228.136 18.2045 228.276 19.1037 228.558 19.8537C228.839 20.6037 229.244 21.179 229.772 21.5795C230.309 21.9801 230.965 22.1804 231.741 22.1804ZM251.029 27.3324C249.776 27.3324 248.664 27.1236 247.692 26.706C246.729 26.2798 245.966 25.6406 245.404 24.7884C244.85 23.9276 244.573 22.8494 244.573 21.554C244.573 20.4631 244.765 19.5426 245.148 18.7926C245.532 18.0426 246.06 17.4332 246.733 16.9645C247.407 16.4957 248.182 16.142 249.06 15.9034C249.938 15.6562 250.875 15.4901 251.873 15.4048C252.989 15.3026 253.888 15.196 254.57 15.0852C255.252 14.9659 255.746 14.7997 256.053 14.5866C256.368 14.3651 256.526 14.054 256.526 13.6534V13.5895C256.526 12.9332 256.3 12.4261 255.848 12.0682C255.397 11.7102 254.787 11.5312 254.02 11.5312C253.194 11.5312 252.529 11.7102 252.026 12.0682C251.523 12.4261 251.203 12.9205 251.067 13.5511L245.301 13.3466C245.472 12.1534 245.911 11.0881 246.618 10.1506C247.334 9.20455 248.314 8.46307 249.559 7.92614C250.811 7.38068 252.316 7.10795 254.071 7.10795C255.324 7.10795 256.479 7.2571 257.536 7.5554C258.593 7.84517 259.513 8.27131 260.297 8.83381C261.081 9.38778 261.686 10.0696 262.113 10.8793C262.547 11.6889 262.765 12.6136 262.765 13.6534V27H256.884V24.2642H256.73C256.381 24.929 255.934 25.4915 255.388 25.9517C254.851 26.4119 254.216 26.7571 253.483 26.9872C252.759 27.2173 251.941 27.3324 251.029 27.3324ZM252.959 23.2415C253.632 23.2415 254.238 23.1051 254.775 22.8324C255.32 22.5597 255.755 22.1847 256.078 21.7074C256.402 21.2216 256.564 20.6591 256.564 20.0199V18.1534C256.385 18.2472 256.168 18.3324 255.912 18.4091C255.665 18.4858 255.392 18.5582 255.094 18.6264C254.796 18.6946 254.489 18.7543 254.174 18.8054C253.858 18.8565 253.556 18.9034 253.266 18.946C252.678 19.0398 252.175 19.1847 251.757 19.3807C251.348 19.5767 251.033 19.8324 250.811 20.1477C250.598 20.4545 250.492 20.821 250.492 21.2472C250.492 21.8949 250.722 22.3892 251.182 22.7301C251.651 23.071 252.243 23.2415 252.959 23.2415ZM264.078 5.95739V0.818181H286.207V5.95739H278.268V27H272.03V5.95739H264.078ZM295.629 27.3707C293.575 27.3707 291.803 26.9659 290.311 26.1562C288.828 25.3381 287.686 24.1747 286.885 22.6662C286.092 21.1491 285.696 19.3466 285.696 17.2585C285.696 15.2301 286.097 13.4574 286.898 11.9403C287.699 10.4148 288.828 9.23011 290.286 8.38636C291.743 7.53409 293.46 7.10795 295.438 7.10795C296.835 7.10795 298.114 7.32528 299.273 7.75994C300.432 8.1946 301.433 8.83807 302.277 9.69034C303.121 10.5426 303.777 11.5952 304.246 12.848C304.714 14.0923 304.949 15.5199 304.949 17.1307V18.6903H287.882V15.0597H299.132C299.124 14.3949 298.966 13.8026 298.659 13.2827C298.352 12.7628 297.93 12.358 297.393 12.0682C296.865 11.7699 296.256 11.6207 295.565 11.6207C294.866 11.6207 294.24 11.7784 293.686 12.0938C293.132 12.4006 292.693 12.8224 292.369 13.3594C292.045 13.8878 291.875 14.4886 291.858 15.1619V18.8565C291.858 19.6577 292.016 20.3608 292.331 20.9659C292.646 21.5625 293.094 22.027 293.673 22.3594C294.253 22.6918 294.943 22.858 295.744 22.858C296.298 22.858 296.801 22.7812 297.253 22.6278C297.705 22.4744 298.092 22.2486 298.416 21.9503C298.74 21.652 298.983 21.2855 299.145 20.8509L304.885 21.017C304.646 22.304 304.122 23.4247 303.312 24.3793C302.511 25.3253 301.459 26.0625 300.155 26.5909C298.851 27.1108 297.342 27.3707 295.629 27.3707ZM317.308 27.3707C315.237 27.3707 313.46 26.9446 311.977 26.0923C310.502 25.2401 309.369 24.0554 308.576 22.5384C307.784 21.0128 307.387 19.2486 307.387 17.2457C307.387 15.2344 307.784 13.4702 308.576 11.9531C309.377 10.4276 310.515 9.23864 311.99 8.38636C313.473 7.53409 315.241 7.10795 317.295 7.10795C319.11 7.10795 320.691 7.43608 322.038 8.09233C323.393 8.74858 324.45 9.67756 325.208 10.8793C325.975 12.0724 326.38 13.4744 326.423 15.0852H320.581C320.461 14.0795 320.12 13.2912 319.558 12.7202C319.004 12.1491 318.279 11.8636 317.385 11.8636C316.66 11.8636 316.025 12.0682 315.48 12.4773C314.934 12.8778 314.508 13.4744 314.201 14.267C313.903 15.0511 313.754 16.0227 313.754 17.1818C313.754 18.3409 313.903 19.321 314.201 20.1222C314.508 20.9148 314.934 21.5156 315.48 21.9247C316.025 22.3253 316.66 22.5256 317.385 22.5256C317.964 22.5256 318.475 22.402 318.919 22.1548C319.37 21.9077 319.741 21.5455 320.031 21.0682C320.321 20.5824 320.504 19.9943 320.581 19.304H326.423C326.363 20.9233 325.958 22.3381 325.208 23.5483C324.467 24.7585 323.423 25.7003 322.076 26.3736C320.738 27.0384 319.149 27.3707 317.308 27.3707ZM335.874 15.8011V27H329.622V0.818181H335.669V10.9688H335.886C336.33 9.75852 337.054 8.8125 338.06 8.13068C339.074 7.44886 340.314 7.10795 341.78 7.10795C343.161 7.10795 344.362 7.41477 345.385 8.02841C346.408 8.63352 347.2 9.49006 347.763 10.598C348.334 11.706 348.615 13.0014 348.607 14.4844V27H342.355V15.7116C342.364 14.6207 342.091 13.7685 341.537 13.1548C340.983 12.5412 340.203 12.2344 339.197 12.2344C338.541 12.2344 337.962 12.3793 337.459 12.669C336.964 12.9503 336.577 13.3551 336.295 13.8835C336.023 14.4119 335.882 15.0511 335.874 15.8011ZM360.243 27V0.818181H371.161C373.121 0.818181 374.762 1.09517 376.083 1.64915C377.412 2.20312 378.409 2.97869 379.074 3.97585C379.748 4.97301 380.084 6.12784 380.084 7.44034C380.084 8.4375 379.875 9.32812 379.458 10.1122C379.04 10.8878 378.465 11.5312 377.732 12.0426C376.999 12.554 376.151 12.9119 375.188 13.1165V13.3722C376.245 13.4233 377.221 13.7088 378.115 14.2287C379.019 14.7486 379.743 15.473 380.289 16.402C380.834 17.3224 381.107 18.4134 381.107 19.6747C381.107 21.081 380.749 22.3381 380.033 23.446C379.317 24.5455 378.282 25.4148 376.926 26.054C375.571 26.6847 373.926 27 371.992 27H360.243ZM366.571 21.8991H370.483C371.855 21.8991 372.865 21.6392 373.513 21.1193C374.169 20.5994 374.498 19.875 374.498 18.946C374.498 18.2727 374.34 17.6932 374.025 17.2074C373.709 16.7131 373.262 16.3338 372.682 16.0696C372.103 15.7969 371.408 15.6605 370.598 15.6605H366.571V21.8991ZM366.571 11.5824H370.074C370.765 11.5824 371.378 11.4673 371.915 11.2372C372.452 11.0071 372.87 10.6747 373.168 10.2401C373.475 9.8054 373.628 9.28125 373.628 8.66761C373.628 7.78977 373.317 7.09943 372.695 6.59659C372.073 6.09375 371.233 5.84233 370.176 5.84233H366.571V11.5824ZM390.401 0.818181V27H384.15V0.818181H390.401ZM403.546 27.3707C401.484 27.3707 399.711 26.9489 398.228 26.1051C396.754 25.2528 395.616 24.0682 394.815 22.5511C394.022 21.0256 393.626 19.2571 393.626 17.2457C393.626 15.2259 394.022 13.4574 394.815 11.9403C395.616 10.4148 396.754 9.23011 398.228 8.38636C399.711 7.53409 401.484 7.10795 403.546 7.10795C405.609 7.10795 407.377 7.53409 408.852 8.38636C410.335 9.23011 411.472 10.4148 412.265 11.9403C413.066 13.4574 413.467 15.2259 413.467 17.2457C413.467 19.2571 413.066 21.0256 412.265 22.5511C411.472 24.0682 410.335 25.2528 408.852 26.1051C407.377 26.9489 405.609 27.3707 403.546 27.3707ZM403.585 22.6534C404.335 22.6534 404.969 22.4233 405.489 21.9631C406.009 21.5028 406.406 20.8636 406.678 20.0455C406.96 19.2273 407.1 18.2812 407.1 17.2074C407.1 16.1165 406.96 15.1619 406.678 14.3438C406.406 13.5256 406.009 12.8864 405.489 12.4261C404.969 11.9659 404.335 11.7358 403.585 11.7358C402.809 11.7358 402.153 11.9659 401.616 12.4261C401.087 12.8864 400.683 13.5256 400.401 14.3438C400.129 15.1619 399.992 16.1165 399.992 17.2074C399.992 18.2812 400.129 19.2273 400.401 20.0455C400.683 20.8636 401.087 21.5028 401.616 21.9631C402.153 22.4233 402.809 22.6534 403.585 22.6534ZM425.822 34.7727C423.956 34.7727 422.358 34.5128 421.028 33.9929C419.699 33.473 418.655 32.7614 417.896 31.858C417.138 30.9545 416.682 29.9318 416.528 28.7898L422.447 28.4574C422.558 28.858 422.763 29.2074 423.061 29.5057C423.368 29.804 423.764 30.0341 424.25 30.196C424.744 30.358 425.324 30.4389 425.989 30.4389C427.037 30.4389 427.902 30.1832 428.584 29.6719C429.274 29.169 429.619 28.2869 429.619 27.0256V23.5739H429.402C429.155 24.179 428.78 24.7202 428.277 25.1974C427.774 25.6747 427.148 26.0497 426.398 26.3224C425.656 26.5952 424.804 26.7315 423.841 26.7315C422.409 26.7315 421.097 26.3991 419.903 25.7344C418.719 25.0611 417.768 24.0213 417.053 22.6151C416.345 21.2003 415.991 19.3807 415.991 17.1562C415.991 14.8636 416.358 12.9759 417.091 11.4929C417.824 10.0014 418.783 8.89773 419.967 8.18182C421.161 7.46591 422.443 7.10795 423.815 7.10795C424.847 7.10795 425.729 7.28693 426.462 7.64489C427.203 7.99432 427.813 8.44602 428.29 9C428.767 9.55398 429.129 10.1293 429.376 10.7259H429.555V7.36364H435.781V27.0767C435.781 28.7386 435.364 30.1406 434.528 31.2827C433.693 32.4247 432.526 33.2898 431.026 33.8778C429.526 34.4744 427.791 34.7727 425.822 34.7727ZM426.014 22.1804C426.773 22.1804 427.42 21.9801 427.957 21.5795C428.494 21.179 428.908 20.6037 429.197 19.8537C429.487 19.1037 429.632 18.2045 429.632 17.1562C429.632 16.0909 429.487 15.1747 429.197 14.4077C428.916 13.6321 428.503 13.0355 427.957 12.6179C427.42 12.2003 426.773 11.9915 426.014 11.9915C425.239 11.9915 424.582 12.2045 424.045 12.6307C423.509 13.0568 423.099 13.6577 422.818 14.4332C422.545 15.2003 422.409 16.108 422.409 17.1562C422.409 18.2045 422.55 19.1037 422.831 19.8537C423.112 20.6037 423.517 21.179 424.045 21.5795C424.582 21.9801 425.239 22.1804 426.014 22.1804Z" fill="#FEFAE0"/>
</svg>
