<svg width="439" height="44" viewBox="0 0 439 44" fill="none" xmlns="http://www.w3.org/2000/svg">
<path d="M1.98153 35V8.81818H8.30966V29.8608H19.2017V35H1.98153ZM35.1467 26.5241V15.3636H41.3853V35H35.4279V31.3438H35.2234C34.7887 32.5455 34.0472 33.5 32.9989 34.2074C31.9592 34.9062 30.7021 35.2557 29.2276 35.2557C27.8896 35.2557 26.7134 34.9489 25.6992 34.3352C24.685 33.7216 23.8967 32.8651 23.3342 31.7656C22.7717 30.6577 22.4862 29.3622 22.4776 27.8793V15.3636H28.729V26.652C28.7376 27.7173 29.0188 28.5568 29.5728 29.1705C30.1268 29.7841 30.881 30.0909 31.8356 30.0909C32.4577 30.0909 33.016 29.9545 33.5103 29.6818C34.0131 29.4006 34.4094 28.9957 34.6992 28.4673C34.9975 27.9304 35.1467 27.2827 35.1467 26.5241ZM54.5305 35.3707C52.4595 35.3707 50.6825 34.9446 49.1996 34.0923C47.7251 33.2401 46.5916 32.0554 45.799 30.5384C45.0064 29.0128 44.6101 27.2486 44.6101 25.2457C44.6101 23.2344 45.0064 21.4702 45.799 19.9531C46.6001 18.4276 47.7379 17.2386 49.2124 16.3864C50.6953 15.5341 52.4638 15.108 54.5178 15.108C56.3331 15.108 57.9141 15.4361 59.2607 16.0923C60.6158 16.7486 61.6726 17.6776 62.4311 18.8793C63.1982 20.0724 63.603 21.4744 63.6456 23.0852H57.8033C57.6839 22.0795 57.343 21.2912 56.7805 20.7202C56.2266 20.1491 55.5021 19.8636 54.6072 19.8636C53.8828 19.8636 53.2479 20.0682 52.7024 20.4773C52.157 20.8778 51.7308 21.4744 51.424 22.267C51.1257 23.0511 50.9766 24.0227 50.9766 25.1818C50.9766 26.3409 51.1257 27.321 51.424 28.1222C51.7308 28.9148 52.157 29.5156 52.7024 29.9247C53.2479 30.3253 53.8828 30.5256 54.6072 30.5256C55.1868 30.5256 55.6982 30.402 56.1413 30.1548C56.593 29.9077 56.9638 29.5455 57.2536 29.0682C57.5433 28.5824 57.7266 27.9943 57.8033 27.304H63.6456C63.5859 28.9233 63.1811 30.3381 62.4311 31.5483C61.6896 32.7585 60.6456 33.7003 59.299 34.3736C57.9609 35.0384 56.3714 35.3707 54.5305 35.3707ZM72.3803 35.3324C71.1275 35.3324 70.0153 35.1236 69.0437 34.706C68.0806 34.2798 67.3178 33.6406 66.7553 32.7884C66.2013 31.9276 65.9244 30.8494 65.9244 29.554C65.9244 28.4631 66.1161 27.5426 66.4996 26.7926C66.8832 26.0426 67.4116 25.4332 68.0849 24.9645C68.7582 24.4957 69.5337 24.142 70.4116 23.9034C71.2894 23.6562 72.2269 23.4901 73.2241 23.4048C74.3406 23.3026 75.2397 23.196 75.9215 23.0852C76.6033 22.9659 77.0977 22.7997 77.4045 22.5866C77.7198 22.3651 77.8775 22.054 77.8775 21.6534V21.5895C77.8775 20.9332 77.6516 20.4261 77.1999 20.0682C76.7482 19.7102 76.1388 19.5312 75.3718 19.5312C74.5451 19.5312 73.8803 19.7102 73.3775 20.0682C72.8746 20.4261 72.555 20.9205 72.4187 21.5511L66.6531 21.3466C66.8235 20.1534 67.2624 19.0881 67.9698 18.1506C68.6857 17.2045 69.6658 16.4631 70.9102 15.9261C72.163 15.3807 73.6673 15.108 75.4229 15.108C76.6758 15.108 77.8306 15.2571 78.8874 15.5554C79.9442 15.8452 80.8647 16.2713 81.6488 16.8338C82.4329 17.3878 83.038 18.0696 83.4641 18.8793C83.8988 19.6889 84.1161 20.6136 84.1161 21.6534V35H78.2354V32.2642H78.082C77.7326 32.929 77.2852 33.4915 76.7397 33.9517C76.2028 34.4119 75.5678 34.7571 74.8349 34.9872C74.1104 35.2173 73.2923 35.3324 72.3803 35.3324ZM74.3107 31.2415C74.984 31.2415 75.5891 31.1051 76.1261 30.8324C76.6715 30.5597 77.1062 30.1847 77.43 29.7074C77.7539 29.2216 77.9158 28.6591 77.9158 28.0199V26.1534C77.7369 26.2472 77.5195 26.3324 77.2639 26.4091C77.0167 26.4858 76.744 26.5582 76.4457 26.6264C76.1474 26.6946 75.8406 26.7543 75.5252 26.8054C75.2099 26.8565 74.9073 26.9034 74.6175 26.946C74.0295 27.0398 73.5266 27.1847 73.109 27.3807C72.6999 27.5767 72.3846 27.8324 72.163 28.1477C71.9499 28.4545 71.8434 28.821 71.8434 29.2472C71.8434 29.8949 72.0735 30.3892 72.5337 30.7301C73.0025 31.071 73.5948 31.2415 74.3107 31.2415ZM105.082 21.3594L99.342 21.5128C99.2823 21.1037 99.1204 20.7415 98.8562 20.4261C98.592 20.1023 98.2468 19.8509 97.8207 19.6719C97.4031 19.4844 96.9173 19.3906 96.3633 19.3906C95.6388 19.3906 95.021 19.5355 94.5096 19.8253C94.0067 20.1151 93.7596 20.5071 93.7681 21.0014C93.7596 21.3849 93.913 21.7173 94.2283 21.9986C94.5522 22.2798 95.1275 22.5057 95.9542 22.6761L99.7383 23.392C101.699 23.767 103.156 24.3892 104.11 25.2585C105.074 26.1278 105.559 27.2784 105.568 28.7102C105.559 30.0568 105.159 31.2287 104.366 32.2259C103.582 33.223 102.508 33.9986 101.145 34.5526C99.7809 35.098 98.2212 35.3707 96.4656 35.3707C93.6616 35.3707 91.4499 34.7955 89.8306 33.6449C88.2198 32.4858 87.2994 30.9347 87.0692 28.9915L93.244 28.8381C93.3803 29.554 93.734 30.0994 94.305 30.4744C94.8761 30.8494 95.6048 31.0369 96.4911 31.0369C97.2923 31.0369 97.9442 30.8878 98.4471 30.5895C98.9499 30.2912 99.2056 29.8949 99.2141 29.4006C99.2056 28.9574 99.0096 28.6037 98.6261 28.3395C98.2425 28.0668 97.6417 27.8537 96.8235 27.7003L93.3974 27.0483C91.4286 26.6903 89.9627 26.0298 88.9996 25.0668C88.0366 24.0952 87.5593 22.8594 87.5678 21.3594C87.5593 20.0469 87.9087 18.9261 88.6161 17.9972C89.3235 17.0597 90.3292 16.3438 91.6332 15.8494C92.9371 15.3551 94.4755 15.108 96.2482 15.108C98.9073 15.108 101.004 15.6662 102.538 16.7827C104.072 17.8906 104.92 19.4162 105.082 21.3594ZM125.827 17.3707C125.683 16.8338 125.469 16.3608 125.188 15.9517C124.907 15.5341 124.562 15.1804 124.153 14.8906C123.744 14.6009 123.275 14.3835 122.746 14.2386C122.218 14.0852 121.638 14.0085 121.008 14.0085C119.738 14.0085 118.638 14.3153 117.71 14.929C116.789 15.5426 116.077 16.4375 115.575 17.6136C115.072 18.7812 114.82 20.2003 114.82 21.8707C114.82 23.5497 115.063 24.9815 115.549 26.1662C116.035 27.3509 116.738 28.2543 117.658 28.8764C118.579 29.4986 119.695 29.8097 121.008 29.8097C122.167 29.8097 123.147 29.6222 123.948 29.2472C124.758 28.8636 125.371 28.3224 125.789 27.6236C126.207 26.9247 126.415 26.1023 126.415 25.1562L127.592 25.2969H121.225V20.6818H132.513V24.1463C132.513 26.4901 132.015 28.4972 131.018 30.1676C130.029 31.8381 128.665 33.1207 126.927 34.0156C125.197 34.9105 123.207 35.358 120.957 35.358C118.46 35.358 116.265 34.8168 114.373 33.7344C112.481 32.652 111.006 31.1094 109.95 29.1065C108.893 27.0952 108.364 24.7088 108.364 21.9474C108.364 19.7997 108.684 17.8949 109.323 16.233C109.962 14.5625 110.853 13.1477 111.995 11.9886C113.146 10.8295 114.475 9.9517 115.984 9.35511C117.501 8.75852 119.133 8.46023 120.88 8.46023C122.397 8.46023 123.808 8.67756 125.112 9.11222C126.424 9.54688 127.583 10.1605 128.589 10.9531C129.603 11.7457 130.425 12.6875 131.056 13.7784C131.687 14.8693 132.079 16.0668 132.232 17.3707H125.827ZM145.409 35.3707C143.347 35.3707 141.574 34.9489 140.091 34.1051C138.617 33.2528 137.479 32.0682 136.678 30.5511C135.885 29.0256 135.489 27.2571 135.489 25.2457C135.489 23.2259 135.885 21.4574 136.678 19.9403C137.479 18.4148 138.617 17.2301 140.091 16.3864C141.574 15.5341 143.347 15.108 145.409 15.108C147.472 15.108 149.24 15.5341 150.715 16.3864C152.198 17.2301 153.336 18.4148 154.128 19.9403C154.929 21.4574 155.33 23.2259 155.33 25.2457C155.33 27.2571 154.929 29.0256 154.128 30.5511C153.336 32.0682 152.198 33.2528 150.715 34.1051C149.24 34.9489 147.472 35.3707 145.409 35.3707ZM145.448 30.6534C146.198 30.6534 146.833 30.4233 147.353 29.9631C147.873 29.5028 148.269 28.8636 148.542 28.0455C148.823 27.2273 148.963 26.2812 148.963 25.2074C148.963 24.1165 148.823 23.1619 148.542 22.3438C148.269 21.5256 147.873 20.8864 147.353 20.4261C146.833 19.9659 146.198 19.7358 145.448 19.7358C144.672 19.7358 144.016 19.9659 143.479 20.4261C142.951 20.8864 142.546 21.5256 142.265 22.3438C141.992 23.1619 141.855 24.1165 141.855 25.2074C141.855 26.2812 141.992 27.2273 142.265 28.0455C142.546 28.8636 142.951 29.5028 143.479 29.9631C144.016 30.4233 144.672 30.6534 145.448 30.6534ZM164.784 23.8011V35H158.532V15.3636H164.477V18.9688H164.694C165.129 17.767 165.87 16.8253 166.919 16.1435C167.967 15.4531 169.216 15.108 170.664 15.108C172.045 15.108 173.243 15.419 174.257 16.0412C175.279 16.6548 176.072 17.5156 176.635 18.6236C177.206 19.723 177.487 21.0099 177.478 22.4844V35H171.227V23.7116C171.235 22.6207 170.958 21.7685 170.396 21.1548C169.842 20.5412 169.071 20.2344 168.082 20.2344C167.426 20.2344 166.846 20.3793 166.343 20.669C165.849 20.9503 165.466 21.3551 165.193 21.8835C164.929 22.4119 164.792 23.0511 164.784 23.8011ZM181.4 35V31.4332L190.502 20.3494V20.2216H181.719V15.3636H197.955V19.2756L189.518 30.0142V30.142H198.262V35H181.4ZM207.837 35.3324C206.585 35.3324 205.472 35.1236 204.501 34.706C203.538 34.2798 202.775 33.6406 202.212 32.7884C201.658 31.9276 201.381 30.8494 201.381 29.554C201.381 28.4631 201.573 27.5426 201.957 26.7926C202.34 26.0426 202.869 25.4332 203.542 24.9645C204.215 24.4957 204.991 24.142 205.869 23.9034C206.746 23.6562 207.684 23.4901 208.681 23.4048C209.798 23.3026 210.697 23.196 211.379 23.0852C212.06 22.9659 212.555 22.7997 212.862 22.5866C213.177 22.3651 213.335 22.054 213.335 21.6534V21.5895C213.335 20.9332 213.109 20.4261 212.657 20.0682C212.205 19.7102 211.596 19.5312 210.829 19.5312C210.002 19.5312 209.337 19.7102 208.835 20.0682C208.332 20.4261 208.012 20.9205 207.876 21.5511L202.11 21.3466C202.281 20.1534 202.719 19.0881 203.427 18.1506C204.143 17.2045 205.123 16.4631 206.367 15.9261C207.62 15.3807 209.124 15.108 210.88 15.108C212.133 15.108 213.288 15.2571 214.344 15.5554C215.401 15.8452 216.322 16.2713 217.106 16.8338C217.89 17.3878 218.495 18.0696 218.921 18.8793C219.356 19.6889 219.573 20.6136 219.573 21.6534V35H213.692V32.2642H213.539C213.19 32.929 212.742 33.4915 212.197 33.9517C211.66 34.4119 211.025 34.7571 210.292 34.9872C209.567 35.2173 208.749 35.3324 207.837 35.3324ZM209.768 31.2415C210.441 31.2415 211.046 31.1051 211.583 30.8324C212.129 30.5597 212.563 30.1847 212.887 29.7074C213.211 29.2216 213.373 28.6591 213.373 28.0199V26.1534C213.194 26.2472 212.977 26.3324 212.721 26.4091C212.474 26.4858 212.201 26.5582 211.903 26.6264C211.604 26.6946 211.298 26.7543 210.982 26.8054C210.667 26.8565 210.364 26.9034 210.075 26.946C209.487 27.0398 208.984 27.1847 208.566 27.3807C208.157 27.5767 207.842 27.8324 207.62 28.1477C207.407 28.4545 207.3 28.821 207.3 29.2472C207.3 29.8949 207.531 30.3892 207.991 30.7301C208.46 31.071 209.052 31.2415 209.768 31.2415ZM232.549 42.7727C230.683 42.7727 229.085 42.5128 227.755 41.9929C226.425 41.473 225.381 40.7614 224.623 39.858C223.864 38.9545 223.408 37.9318 223.255 36.7898L229.174 36.4574C229.285 36.858 229.489 37.2074 229.788 37.5057C230.094 37.804 230.491 38.0341 230.977 38.196C231.471 38.358 232.05 38.4389 232.715 38.4389C233.763 38.4389 234.629 38.1832 235.31 37.6719C236.001 37.169 236.346 36.2869 236.346 35.0256V31.5739H236.129C235.881 32.179 235.506 32.7202 235.004 33.1974C234.501 33.6747 233.874 34.0497 233.124 34.3224C232.383 34.5952 231.531 34.7315 230.567 34.7315C229.136 34.7315 227.823 34.3991 226.63 33.7344C225.445 33.0611 224.495 32.0213 223.779 30.6151C223.072 29.2003 222.718 27.3807 222.718 25.1562C222.718 22.8636 223.085 20.9759 223.817 19.4929C224.55 18.0014 225.509 16.8977 226.694 16.1818C227.887 15.4659 229.17 15.108 230.542 15.108C231.573 15.108 232.455 15.2869 233.188 15.6449C233.93 15.9943 234.539 16.446 235.016 17C235.494 17.554 235.856 18.1293 236.103 18.7259H236.282V15.3636H242.508V35.0767C242.508 36.7386 242.09 38.1406 241.255 39.2827C240.42 40.4247 239.252 41.2898 237.752 41.8778C236.252 42.4744 234.518 42.7727 232.549 42.7727ZM232.741 30.1804C233.499 30.1804 234.147 29.9801 234.684 29.5795C235.221 29.179 235.634 28.6037 235.924 27.8537C236.214 27.1037 236.359 26.2045 236.359 25.1562C236.359 24.0909 236.214 23.1747 235.924 22.4077C235.643 21.6321 235.229 21.0355 234.684 20.6179C234.147 20.2003 233.499 19.9915 232.741 19.9915C231.965 19.9915 231.309 20.2045 230.772 20.6307C230.235 21.0568 229.826 21.6577 229.545 22.4332C229.272 23.2003 229.136 24.108 229.136 25.1562C229.136 26.2045 229.276 27.1037 229.558 27.8537C229.839 28.6037 230.244 29.179 230.772 29.5795C231.309 29.9801 231.965 30.1804 232.741 30.1804ZM252.029 35.3324C250.776 35.3324 249.664 35.1236 248.692 34.706C247.729 34.2798 246.966 33.6406 246.404 32.7884C245.85 31.9276 245.573 30.8494 245.573 29.554C245.573 28.4631 245.765 27.5426 246.148 26.7926C246.532 26.0426 247.06 25.4332 247.733 24.9645C248.407 24.4957 249.182 24.142 250.06 23.9034C250.938 23.6562 251.875 23.4901 252.873 23.4048C253.989 23.3026 254.888 23.196 255.57 23.0852C256.252 22.9659 256.746 22.7997 257.053 22.5866C257.368 22.3651 257.526 22.054 257.526 21.6534V21.5895C257.526 20.9332 257.3 20.4261 256.848 20.0682C256.397 19.7102 255.787 19.5312 255.02 19.5312C254.194 19.5312 253.529 19.7102 253.026 20.0682C252.523 20.4261 252.203 20.9205 252.067 21.5511L246.301 21.3466C246.472 20.1534 246.911 19.0881 247.618 18.1506C248.334 17.2045 249.314 16.4631 250.559 15.9261C251.811 15.3807 253.316 15.108 255.071 15.108C256.324 15.108 257.479 15.2571 258.536 15.5554C259.593 15.8452 260.513 16.2713 261.297 16.8338C262.081 17.3878 262.686 18.0696 263.113 18.8793C263.547 19.6889 263.765 20.6136 263.765 21.6534V35H257.884V32.2642H257.73C257.381 32.929 256.934 33.4915 256.388 33.9517C255.851 34.4119 255.216 34.7571 254.483 34.9872C253.759 35.2173 252.941 35.3324 252.029 35.3324ZM253.959 31.2415C254.632 31.2415 255.238 31.1051 255.775 30.8324C256.32 30.5597 256.755 30.1847 257.078 29.7074C257.402 29.2216 257.564 28.6591 257.564 28.0199V26.1534C257.385 26.2472 257.168 26.3324 256.912 26.4091C256.665 26.4858 256.392 26.5582 256.094 26.6264C255.796 26.6946 255.489 26.7543 255.174 26.8054C254.858 26.8565 254.556 26.9034 254.266 26.946C253.678 27.0398 253.175 27.1847 252.757 27.3807C252.348 27.5767 252.033 27.8324 251.811 28.1477C251.598 28.4545 251.492 28.821 251.492 29.2472C251.492 29.8949 251.722 30.3892 252.182 30.7301C252.651 31.071 253.243 31.2415 253.959 31.2415ZM265.078 13.9574V8.81818H287.207V13.9574H279.268V35H273.03V13.9574H265.078ZM296.629 35.3707C294.575 35.3707 292.803 34.9659 291.311 34.1562C289.828 33.3381 288.686 32.1747 287.885 30.6662C287.092 29.1491 286.696 27.3466 286.696 25.2585C286.696 23.2301 287.097 21.4574 287.898 19.9403C288.699 18.4148 289.828 17.2301 291.286 16.3864C292.743 15.5341 294.46 15.108 296.438 15.108C297.835 15.108 299.114 15.3253 300.273 15.7599C301.432 16.1946 302.433 16.8381 303.277 17.6903C304.121 18.5426 304.777 19.5952 305.246 20.848C305.714 22.0923 305.949 23.5199 305.949 25.1307V26.6903H288.882V23.0597H300.132C300.124 22.3949 299.966 21.8026 299.659 21.2827C299.352 20.7628 298.93 20.358 298.393 20.0682C297.865 19.7699 297.256 19.6207 296.565 19.6207C295.866 19.6207 295.24 19.7784 294.686 20.0938C294.132 20.4006 293.693 20.8224 293.369 21.3594C293.045 21.8878 292.875 22.4886 292.858 23.1619V26.8565C292.858 27.6577 293.016 28.3608 293.331 28.9659C293.646 29.5625 294.094 30.027 294.673 30.3594C295.253 30.6918 295.943 30.858 296.744 30.858C297.298 30.858 297.801 30.7812 298.253 30.6278C298.705 30.4744 299.092 30.2486 299.416 29.9503C299.74 29.652 299.983 29.2855 300.145 28.8509L305.885 29.017C305.646 30.304 305.122 31.4247 304.312 32.3793C303.511 33.3253 302.459 34.0625 301.155 34.5909C299.851 35.1108 298.342 35.3707 296.629 35.3707ZM318.308 35.3707C316.237 35.3707 314.46 34.9446 312.977 34.0923C311.502 33.2401 310.369 32.0554 309.576 30.5384C308.784 29.0128 308.387 27.2486 308.387 25.2457C308.387 23.2344 308.784 21.4702 309.576 19.9531C310.377 18.4276 311.515 17.2386 312.99 16.3864C314.473 15.5341 316.241 15.108 318.295 15.108C320.11 15.108 321.691 15.4361 323.038 16.0923C324.393 16.7486 325.45 17.6776 326.208 18.8793C326.975 20.0724 327.38 21.4744 327.423 23.0852H321.581C321.461 22.0795 321.12 21.2912 320.558 20.7202C320.004 20.1491 319.279 19.8636 318.385 19.8636C317.66 19.8636 317.025 20.0682 316.48 20.4773C315.934 20.8778 315.508 21.4744 315.201 22.267C314.903 23.0511 314.754 24.0227 314.754 25.1818C314.754 26.3409 314.903 27.321 315.201 28.1222C315.508 28.9148 315.934 29.5156 316.48 29.9247C317.025 30.3253 317.66 30.5256 318.385 30.5256C318.964 30.5256 319.475 30.402 319.919 30.1548C320.37 29.9077 320.741 29.5455 321.031 29.0682C321.321 28.5824 321.504 27.9943 321.581 27.304H327.423C327.363 28.9233 326.958 30.3381 326.208 31.5483C325.467 32.7585 324.423 33.7003 323.076 34.3736C321.738 35.0384 320.149 35.3707 318.308 35.3707ZM336.874 23.8011V35H330.622V8.81818H336.669V18.9688H336.886C337.33 17.7585 338.054 16.8125 339.06 16.1307C340.074 15.4489 341.314 15.108 342.78 15.108C344.161 15.108 345.362 15.4148 346.385 16.0284C347.408 16.6335 348.2 17.4901 348.763 18.598C349.334 19.706 349.615 21.0014 349.607 22.4844V35H343.355V23.7116C343.364 22.6207 343.091 21.7685 342.537 21.1548C341.983 20.5412 341.203 20.2344 340.197 20.2344C339.541 20.2344 338.962 20.3793 338.459 20.669C337.964 20.9503 337.577 21.3551 337.295 21.8835C337.023 22.4119 336.882 23.0511 336.874 23.8011ZM361.243 35V8.81818H372.161C374.121 8.81818 375.762 9.09517 377.083 9.64915C378.412 10.2031 379.409 10.9787 380.074 11.9759C380.748 12.973 381.084 14.1278 381.084 15.4403C381.084 16.4375 380.875 17.3281 380.458 18.1122C380.04 18.8878 379.465 19.5312 378.732 20.0426C377.999 20.554 377.151 20.9119 376.188 21.1165V21.3722C377.245 21.4233 378.221 21.7088 379.115 22.2287C380.019 22.7486 380.743 23.473 381.289 24.402C381.834 25.3224 382.107 26.4134 382.107 27.6747C382.107 29.081 381.749 30.3381 381.033 31.446C380.317 32.5455 379.282 33.4148 377.926 34.054C376.571 34.6847 374.926 35 372.992 35H361.243ZM367.571 29.8991H371.483C372.855 29.8991 373.865 29.6392 374.513 29.1193C375.169 28.5994 375.498 27.875 375.498 26.946C375.498 26.2727 375.34 25.6932 375.025 25.2074C374.709 24.7131 374.262 24.3338 373.682 24.0696C373.103 23.7969 372.408 23.6605 371.598 23.6605H367.571V29.8991ZM367.571 19.5824H371.074C371.765 19.5824 372.378 19.4673 372.915 19.2372C373.452 19.0071 373.87 18.6747 374.168 18.2401C374.475 17.8054 374.628 17.2812 374.628 16.6676C374.628 15.7898 374.317 15.0994 373.695 14.5966C373.073 14.0938 372.233 13.8423 371.176 13.8423H367.571V19.5824ZM391.401 8.81818V35H385.15V8.81818H391.401ZM404.546 35.3707C402.484 35.3707 400.711 34.9489 399.228 34.1051C397.754 33.2528 396.616 32.0682 395.815 30.5511C395.022 29.0256 394.626 27.2571 394.626 25.2457C394.626 23.2259 395.022 21.4574 395.815 19.9403C396.616 18.4148 397.754 17.2301 399.228 16.3864C400.711 15.5341 402.484 15.108 404.546 15.108C406.609 15.108 408.377 15.5341 409.852 16.3864C411.335 17.2301 412.472 18.4148 413.265 19.9403C414.066 21.4574 414.467 23.2259 414.467 25.2457C414.467 27.2571 414.066 29.0256 413.265 30.5511C412.472 32.0682 411.335 33.2528 409.852 34.1051C408.377 34.9489 406.609 35.3707 404.546 35.3707ZM404.585 30.6534C405.335 30.6534 405.969 30.4233 406.489 29.9631C407.009 29.5028 407.406 28.8636 407.678 28.0455C407.96 27.2273 408.1 26.2812 408.1 25.2074C408.1 24.1165 407.96 23.1619 407.678 22.3438C407.406 21.5256 407.009 20.8864 406.489 20.4261C405.969 19.9659 405.335 19.7358 404.585 19.7358C403.809 19.7358 403.153 19.9659 402.616 20.4261C402.087 20.8864 401.683 21.5256 401.401 22.3438C401.129 23.1619 400.992 24.1165 400.992 25.2074C400.992 26.2812 401.129 27.2273 401.401 28.0455C401.683 28.8636 402.087 29.5028 402.616 29.9631C403.153 30.4233 403.809 30.6534 404.585 30.6534ZM426.822 42.7727C424.956 42.7727 423.358 42.5128 422.028 41.9929C420.699 41.473 419.655 40.7614 418.896 39.858C418.138 38.9545 417.682 37.9318 417.528 36.7898L423.447 36.4574C423.558 36.858 423.763 37.2074 424.061 37.5057C424.368 37.804 424.764 38.0341 425.25 38.196C425.744 38.358 426.324 38.4389 426.989 38.4389C428.037 38.4389 428.902 38.1832 429.584 37.6719C430.274 37.169 430.619 36.2869 430.619 35.0256V31.5739H430.402C430.155 32.179 429.78 32.7202 429.277 33.1974C428.774 33.6747 428.148 34.0497 427.398 34.3224C426.656 34.5952 425.804 34.7315 424.841 34.7315C423.409 34.7315 422.097 34.3991 420.903 33.7344C419.719 33.0611 418.768 32.0213 418.053 30.6151C417.345 29.2003 416.991 27.3807 416.991 25.1562C416.991 22.8636 417.358 20.9759 418.091 19.4929C418.824 18.0014 419.783 16.8977 420.967 16.1818C422.161 15.4659 423.443 15.108 424.815 15.108C425.847 15.108 426.729 15.2869 427.462 15.6449C428.203 15.9943 428.813 16.446 429.29 17C429.767 17.554 430.129 18.1293 430.376 18.7259H430.555V15.3636H436.781V35.0767C436.781 36.7386 436.364 38.1406 435.528 39.2827C434.693 40.4247 433.526 41.2898 432.026 41.8778C430.526 42.4744 428.791 42.7727 426.822 42.7727ZM427.014 30.1804C427.773 30.1804 428.42 29.9801 428.957 29.5795C429.494 29.179 429.908 28.6037 430.197 27.8537C430.487 27.1037 430.632 26.2045 430.632 25.1562C430.632 24.0909 430.487 23.1747 430.197 22.4077C429.916 21.6321 429.503 21.0355 428.957 20.6179C428.42 20.2003 427.773 19.9915 427.014 19.9915C426.239 19.9915 425.582 20.2045 425.045 20.6307C424.509 21.0568 424.099 21.6577 423.818 22.4332C423.545 23.2003 423.409 24.108 423.409 25.1562C423.409 26.2045 423.55 27.1037 423.831 27.8537C424.112 28.6037 424.517 29.179 425.045 29.5795C425.582 29.9801 426.239 30.1804 427.014 30.1804Z" fill="#3F37C9"/>
</svg>
